<svg viewBox="0 0 24 24" fill="none" xmlns="http://www.w3.org/2000/svg"><g id="SVGRepo_bgCarrier" stroke-width="0"></g><g id="SVGRepo_tracerCarrier" stroke-linecap="round" stroke-linejoin="round"></g><g id="SVGRepo_iconCarrier"><path d="M15 9H20.5C21.8807 9 23 10.1193 23 11.5V11.5C23 12.8807 21.8807 14 20.5 14H16.4806C16.1768 14 15.8895 14.1381 15.6998 14.3753L12.3002 18.6247C12.1105 18.8619 11.8232 19 11.5194 19H9.47703C8.76957 19 8.28581 18.2855 8.54856 17.6286L9.45144 15.3714C9.71419 14.7145 9.23043 14 8.52297 14H4.6594C4.25937 14 3.89783 13.7616 3.74025 13.3939L1.59739 8.39392C1.31459 7.73405 1.79862 7 2.51654 7H4.38197C4.76074 7 5.107 7.214 5.27639 7.55279L5.72361 8.44721C5.893 8.786 6.23926 9 6.61803 9H10M15 9L12.3 5.4C12.1111 5.14819 11.8148 5 11.5 5H9.61803C8.87465 5 8.39116 5.78231 8.72361 6.44721L10 9M15 9H10" stroke="#000000" stroke-linecap="round" stroke-linejoin="round" stroke-width="1"></path></g></svg>