<?xml version="1.0" encoding="iso-8859-1"?>
<!-- Generator: Adobe Illustrator 19.2.1, SVG Export Plug-In . SVG Version: 6.00 Build 0)  -->
<svg version="1.1" xmlns="http://www.w3.org/2000/svg" xmlns:xlink="http://www.w3.org/1999/xlink" x="0px" y="0px"
	 viewBox="0 0 24 24" style="enable-background:new 0 0 24 24;" xml:space="preserve">
<g id="Add_Users">
</g>
<g id="Remove_Users">
</g>
<g id="Delete_Users">
</g>
<g id="Done_3">
</g>
<g id="At_Symbol_3">
</g>
<g id="Question_3">
</g>
<g id="Answer_3">
</g>
<g id="Bring_Up_3">
</g>
<g id="Bring_Down_3">
</g>
<g id="Dismiss_Users">
</g>
<g id="Users_Speed_3">
</g>
<g id="Users_Settings">
</g>
<g id="Refresh_Users">
</g>
<g id="Time_3">
</g>
<g id="Dollar_3">
</g>
<g id="Euro_3">
</g>
<g id="Pound_3">
</g>
<g id="Bitcoin_3">
</g>
<g id="Global_Users">
</g>
<g id="Waiting_Users">
</g>
<g id="Writing_Users">
</g>
<g id="Search_Users">
</g>
<g id="Lock_Users">
</g>
<g id="Mark_Users">
</g>
<g id="Share_Users">
</g>
<g id="Shopping_3">
</g>
<g id="Download_3">
</g>
<g id="Upload_3">
</g>
<g id="Users_Statistics">
</g>
<g id="Users_Defense">
</g>
<g id="Car_3">
	<g>
		<g>
			<g>
				<path d="M22.5,23h-6c-0.827,0-1.5-0.673-1.5-1.5V20c0-0.189,0.107-0.362,0.276-0.447l0.815-0.407l0.707-2.119
					C17.002,16.412,17.574,16,18.221,16h2.559c0.646,0,1.218,0.412,1.423,1.026l0.707,2.119l0.815,0.407
					C23.893,19.638,24,19.811,24,20v1.5C24,22.327,23.327,23,22.5,23z M16,20.309V21.5c0,0.275,0.224,0.5,0.5,0.5h6
					c0.276,0,0.5-0.225,0.5-0.5v-1.191l-0.724-0.361c-0.119-0.06-0.209-0.163-0.25-0.289l-0.772-2.315
					C21.185,17.138,20.995,17,20.779,17h-2.559c-0.215,0-0.406,0.138-0.475,0.343l-0.772,2.315c-0.042,0.126-0.132,0.229-0.25,0.289
					L16,20.309z M16.5,19.5h0.01H16.5z"/>
			</g>
			<g>
				<path d="M22.5,20h-6c-0.276,0-0.5-0.224-0.5-0.5s0.224-0.5,0.5-0.5h6c0.276,0,0.5,0.224,0.5,0.5S22.776,20,22.5,20z"/>
			</g>
			<g>
				<path d="M16.5,24c-0.276,0-0.5-0.224-0.5-0.5v-1c0-0.276,0.224-0.5,0.5-0.5s0.5,0.224,0.5,0.5v1C17,23.776,16.776,24,16.5,24z"
					/>
			</g>
			<g>
				<path d="M22.5,24c-0.276,0-0.5-0.224-0.5-0.5v-1c0-0.276,0.224-0.5,0.5-0.5s0.5,0.224,0.5,0.5v1C23,23.776,22.776,24,22.5,24z"
					/>
			</g>
			<g>
				<path d="M17.5,21.5h-2c-0.276,0-0.5-0.224-0.5-0.5s0.224-0.5,0.5-0.5h2c0.276,0,0.5,0.224,0.5,0.5S17.776,21.5,17.5,21.5z"/>
			</g>
			<g>
				<path d="M23.5,21.5h-2c-0.276,0-0.5-0.224-0.5-0.5s0.224-0.5,0.5-0.5h2c0.276,0,0.5,0.224,0.5,0.5S23.776,21.5,23.5,21.5z"/>
			</g>
		</g>
		<g>
			<g>
				<path d="M0.5,17.998c-0.276,0-0.5-0.224-0.5-0.5c0-1.971,1.334-3.68,3.246-4.157l2.755-0.688l0.221-0.884
					c-0.685-0.73-1.163-1.694-1.33-2.683c-0.473-0.13-0.84-0.534-0.903-1.041L3.803,6.566c-0.044-0.353,0.065-0.707,0.3-0.974
					C4.229,5.45,4.385,5.34,4.557,5.269C4.504,4.81,4.435,4.144,4.435,3.825c0-1.397,0.421-3.003,3.667-3.084
					C9.228,0,10.423,0,10.944,0c1.351,0,2.329,0.449,2.909,1.335c0.768,1.172,0.395,1.986-0.054,2.464l-0.243,0.243l-0.062,1.251
					c0.154,0.072,0.294,0.177,0.408,0.308c0.23,0.266,0.338,0.617,0.294,0.966l-0.185,1.479c-0.06,0.475-0.385,0.859-0.814,1.013
					c-0.168,1.032-0.672,2.033-1.402,2.778l0.204,0.816l2.755,0.688c0.568,0.143,1.091,0.394,1.555,0.747
					c0.22,0.167,0.262,0.48,0.095,0.7c-0.168,0.219-0.481,0.264-0.701,0.095c-0.355-0.27-0.756-0.463-1.192-0.571l-3.046-0.762
					c-0.179-0.045-0.319-0.185-0.364-0.364l-0.347-1.389c-0.045-0.18,0.013-0.37,0.151-0.493c0.76-0.681,1.261-1.695,1.342-2.713
					c0.021-0.261,0.238-0.461,0.499-0.461c0.156,0,0.258-0.09,0.273-0.21l0.185-1.479c0.011-0.091-0.03-0.154-0.057-0.184
					c-0.026-0.03-0.085-0.082-0.18-0.083c-0.135-0.002-0.265-0.059-0.357-0.157c-0.093-0.1-0.142-0.231-0.135-0.367l0.09-1.85
					c0.006-0.124,0.058-0.241,0.146-0.329l0.369-0.369c0.208-0.223,0.374-0.551-0.065-1.22C12.633,1.297,11.936,1,10.944,1
					C10.46,1,9.454,1,8.552,1.645C8.468,1.705,8.368,1.737,8.266,1.738c-2.831,0.028-2.831,1.17-2.831,2.087
					c0,0.355,0.124,1.41,0.171,1.786C5.624,5.754,5.58,5.896,5.484,6.005C5.39,6.112,5.253,6.174,5.109,6.174
					c-0.17,0-0.229,0.051-0.256,0.081c-0.027,0.03-0.07,0.095-0.058,0.187L4.98,7.92c0.015,0.12,0.117,0.21,0.237,0.21h0.12
					c0.261,0,0.478,0.2,0.499,0.46c0.079,0.987,0.558,1.982,1.281,2.661c0.132,0.124,0.187,0.31,0.143,0.485l-0.362,1.449
					c-0.044,0.18-0.185,0.319-0.364,0.364l-3.046,0.762C2.023,14.677,1,15.987,1,17.498C1,17.774,0.776,17.998,0.5,17.998z"/>
			</g>
		</g>
		<g>
			<path d="M22.029,15.003c-0.107,0-0.214-0.034-0.306-0.104c-0.36-0.279-0.768-0.477-1.211-0.587l-3.046-0.762
				c-0.179-0.045-0.319-0.185-0.364-0.364l-0.347-1.389c-0.045-0.18,0.013-0.37,0.151-0.493c0.76-0.681,1.261-1.695,1.342-2.713
				c0.021-0.261,0.238-0.461,0.499-0.461c0.156,0,0.258-0.09,0.273-0.21l0.185-1.479c0.011-0.091-0.03-0.154-0.056-0.184
				c-0.027-0.03-0.085-0.082-0.18-0.083c-0.135-0.002-0.265-0.059-0.357-0.157c-0.093-0.1-0.142-0.231-0.135-0.367l0.09-1.85
				c0.006-0.124,0.058-0.241,0.146-0.329l0.369-0.369c0.208-0.223,0.374-0.551-0.065-1.22C18.633,1.297,17.936,1,16.944,1
				c-0.419,0-0.974,0.024-1.545,0.218c-0.261,0.088-0.545-0.051-0.634-0.313c-0.088-0.262,0.052-0.545,0.313-0.634
				C15.788,0.03,16.448,0,16.944,0c1.351,0,2.329,0.449,2.909,1.335c0.768,1.172,0.395,1.986-0.054,2.464l-0.243,0.243l-0.062,1.251
				c0.154,0.072,0.294,0.177,0.408,0.308c0.23,0.266,0.338,0.617,0.294,0.966l-0.185,1.479c-0.06,0.475-0.385,0.859-0.814,1.013
				c-0.168,1.032-0.672,2.033-1.402,2.778l0.204,0.816l2.755,0.688c0.579,0.145,1.11,0.402,1.581,0.767
				c0.218,0.169,0.258,0.483,0.089,0.701C22.326,14.937,22.178,15.003,22.029,15.003z"/>
		</g>
	</g>
</g>
<g id="Home_3">
</g>
<g id="Park_3">
</g>
<g id="Recicle_Users">
</g>
<g id="Wifi_3">
</g>
<g id="Attach_3">
</g>
<g id="Disabled_Users">
</g>
<g id="Users_Card">
</g>
<g id="Gaming_3">
</g>
<g id="Cloud_3">
</g>
<g id="Database_3">
</g>
<g id="Copyright_3">
</g>
<g id="No_Copzright_3">
</g>
<g id="Creative_Commun_3">
</g>
<g id="Eco-Friendly_3">
</g>
<g id="Percentage_3">
</g>
<g id="Users_Love">
</g>
<g id="Users_Place">
</g>
<g id="Users_Key">
</g>
<g id="Sleeping_3">
</g>
</svg>
